<?xml version="1.0" encoding="UTF-8" standalone="no"?>
<svg
   xmlns:dc="http://purl.org/dc/elements/1.1/"
   xmlns:cc="http://creativecommons.org/ns#"
   xmlns:rdf="http://www.w3.org/1999/02/22-rdf-syntax-ns#"
   xmlns:svg="http://www.w3.org/2000/svg"
   xmlns="http://www.w3.org/2000/svg"
   xmlns:sodipodi="http://sodipodi.sourceforge.net/DTD/sodipodi-0.dtd"
   xmlns:inkscape="http://www.inkscape.org/namespaces/inkscape"
   width="41.295952mm"
   height="16.583334mm"
   viewBox="0 0 41.295951 16.583334"
   version="1.1"
   id="svg2680"
   inkscape:version="1.0.1 (0767f8302a, 2020-10-17)"
   sodipodi:docname="ftso-next-2021-with-payoff.svg">
  <defs
     id="defs2674">
    <filter
       inkscape:collect="always"
       style="color-interpolation-filters:sRGB"
       id="filter882"
       x="-1.0115649e-05"
       width="1.0000202"
       y="-0.00018832651"
       height="1.0003767">
      <feGaussianBlur
         inkscape:collect="always"
         stdDeviation="0.0022655601"
         id="feGaussianBlur884" />
    </filter>
  </defs>
  <sodipodi:namedview
     id="base"
     pagecolor="#ffffff"
     bordercolor="#666666"
     borderopacity="1.0"
     inkscape:pageopacity="0.0"
     inkscape:pageshadow="2"
     inkscape:zoom="15.839192"
     inkscape:cx="63.323791"
     inkscape:cy="45.73976"
     inkscape:document-units="mm"
     inkscape:current-layer="layer1"
     inkscape:document-rotation="0"
     showgrid="false"
     lock-margins="true"
     fit-margin-top="3"
     fit-margin-left="3"
     fit-margin-right="3"
     fit-margin-bottom="3"
     inkscape:window-width="1869"
     inkscape:window-height="1025"
     inkscape:window-x="51"
     inkscape:window-y="27"
     inkscape:window-maximized="1" />
  <metadata
     id="metadata2677">
    <rdf:RDF>
      <cc:Work
         rdf:about="">
        <dc:format>image/svg+xml</dc:format>
        <dc:type
           rdf:resource="http://purl.org/dc/dcmitype/StillImage" />
        <dc:title />
      </cc:Work>
    </rdf:RDF>
  </metadata>
  <g
     inkscape:label="Livello 1"
     inkscape:groupmode="layer"
     id="layer1"
     transform="translate(31.134238,-68.626087)">
    <g
       id="g3641"
       transform="matrix(0.42981785,0,0,0.42981785,-16.04164,40.839916)">
      <path
         d="m -22.598805,71.741431 c 0.07912,0.05586 0.595721,0.898366 1.372944,2.243596 0.684143,1.186962 1.261248,2.155148 1.279864,2.159807 0.0186,0.0047 0.176853,-0.242049 0.353711,-0.544609 0.404903,-0.712181 0.516597,-0.823891 0.837726,-0.856476 0.358361,-0.03259 0.507293,0.06517 0.781878,0.521335 0.935468,1.568651 2.573694,4.468565 2.596967,4.603553 0.03723,0.242048 -0.121006,0.544605 -0.353707,0.674942 l -0.181512,0.102403 h -5.826872 -5.826875 l -0.181507,-0.102403 c -0.228047,-0.130337 -0.390939,-0.432894 -0.353709,-0.670284 0.02326,-0.134988 4.249155,-7.545364 4.551668,-7.982912 0.190814,-0.274633 0.674836,-0.353763 0.949424,-0.148952 z m 7.204473,10.566303 c 0.03723,0.06517 -0.0605,0.5865 -0.153588,0.786657 -0.204775,0.47013 -0.698104,0.823889 -1.386902,1.000772 -0.335093,0.08379 -0.567796,0.08844 -5.743104,0.08844 h -5.389391 V 83.99741 c 0,-0.251356 0.144273,-0.647013 0.325783,-0.903023 0.293206,-0.404968 0.865653,-0.702873 1.484643,-0.768039 0.44679,-0.0512 10.834631,-0.06516 10.862559,-0.01858 z m -3.192679,3.826216 c -0.06516,0.740105 -0.632948,1.30333 -1.526532,1.517449 -0.242012,0.05586 -0.702761,0.06983 -2.550417,0.06983 h -2.252567 l 0.02792,-0.256014 c 0.05585,-0.558574 0.42352,-1.075252 0.958736,-1.345231 0.48868,-0.251357 0.544525,-0.25601 3.048401,-0.25601 l 2.322376,-0.0047 z"
         id="path6027-3-6"
         style="display:inline;fill:#003399;fill-opacity:1;stroke:none;stroke-width:0.00465439"
         inkscape:export-xdpi="97.763329"
         inkscape:export-ydpi="97.763329"
         sodipodi:nodetypes="ccccccccccccccccccscsccccccscccccc" />
      <g
         aria-label="ftso.eu"
         id="text5997-7"
         style="font-weight:300;font-size:133.333px;line-height:1.25;font-family:Ubuntu;-inkscape-font-specification:'Ubuntu Light';display:inline;fill:#003399;fill-opacity:1"
         transform="matrix(0.15252796,0,0,0.15252796,-37.341327,64.070077)">
        <path
           d="m 228.69888,50.249525 q 5.59998,0 9.06664,0.933331 3.59999,0.799998 4.66666,1.466663 l -1.73333,7.466647 q -1.46667,-0.666665 -4.39999,-1.33333 -2.79999,-0.799998 -7.19998,-0.799998 -9.19998,0 -13.19997,4.666655 -3.86666,4.666655 -3.86666,14.933295 v 7.199982 h 27.73327 v 7.333315 h -27.73327 v 61.599845 h -8.66664 V 77.316122 q 0,-13.466632 6.13332,-20.266614 6.26665,-6.799983 19.19995,-6.799983 z"
           id="path2612" />
        <path
           d="m 261.75921,84.78277 h 27.4666 v 7.333315 h -27.4666 v 36.666575 q 0,5.86665 0.93333,9.59997 1.06666,3.59999 2.93333,5.59999 1.86666,1.99999 4.53332,2.66666 2.66666,0.66666 5.86665,0.66666 5.46665,0 8.79998,-1.19999 3.33332,-1.33333 5.19998,-2.4 l 2.13333,7.19998 q -1.86666,1.2 -6.53331,2.8 -4.66666,1.46666 -10.13331,1.46666 -6.39999,0 -10.79997,-1.6 -4.26666,-1.73332 -6.93332,-5.06665 -2.53333,-3.46666 -3.59999,-8.53331 -1.06666,-5.06665 -1.06666,-11.99997 V 64.516155 l 8.66664,-1.599996 z"
           id="path2614" />
        <path
           d="m 319.32156,147.58261 q 7.46665,0 12.26664,-2.39999 4.93332,-2.53333 4.93332,-8.39998 0,-2.8 -0.93333,-4.79999 -0.8,-2 -2.8,-3.59999 -1.99999,-1.6 -5.33332,-3.06666 -3.19999,-1.46666 -7.99998,-3.46666 -3.86665,-1.59999 -7.33331,-3.19999 -3.46666,-1.73333 -6.13332,-3.86666 -2.66666,-2.26666 -4.26665,-5.33332 -1.6,-3.06666 -1.6,-7.46664 0,-8.399983 6.26665,-13.599969 6.39998,-5.199987 17.46662,-5.199987 7.06665,0 11.59997,1.199997 4.66666,1.199997 6.53332,2.133328 l -2,7.733313 q -1.59999,-0.799998 -5.46665,-2.133327 -3.73332,-1.33333 -11.06664,-1.33333 -2.93332,0 -5.59998,0.666665 -2.53333,0.533332 -4.53332,1.866661 -2,1.199997 -3.2,3.199992 -1.19999,1.866662 -1.19999,4.666657 0,2.79999 1.06666,4.79999 1.06667,1.99999 3.06666,3.59999 2.13333,1.46666 5.06665,2.79999 3.06666,1.33333 6.93332,2.93333 3.99999,1.59999 7.59998,3.33332 3.73332,1.6 6.53332,3.99999 2.79999,2.26666 4.53332,5.59999 1.73333,3.19999 1.73333,8.13331 0,9.33331 -7.06665,14.1333 -6.93332,4.79998 -19.06662,4.79998 -9.06664,0 -13.86663,-1.59999 -4.79999,-1.46667 -6.39998,-2.26666 l 2.26666,-7.86665 q 0.4,0.26667 1.73333,0.93333 1.33333,0.53333 3.59999,1.33333 2.26666,0.66667 5.33332,1.2 3.19999,0.53333 7.33331,0.53333 z"
           id="path2616" />
        <path
           d="m 421.01922,119.31602 q 0,8.13331 -2.4,14.79996 -2.26666,6.66665 -6.53331,11.3333 -4.13332,4.66666 -9.86664,7.33332 -5.73332,2.53332 -12.66664,2.53332 -6.93331,0 -12.66663,-2.53332 -5.73332,-2.66666 -9.99998,-7.33332 -4.13332,-4.66665 -6.53331,-11.3333 -2.26666,-6.66665 -2.26666,-14.79996 0,-8.13332 2.26666,-14.79997 2.39999,-6.666647 6.53331,-11.333301 4.26666,-4.799988 9.99998,-7.333315 5.73332,-2.66666 12.66663,-2.66666 6.93332,0 12.66664,2.66666 5.73332,2.533327 9.86664,7.333315 4.26665,4.666654 6.53331,11.333301 2.4,6.66665 2.4,14.79997 z m -9.19998,0 q 0,-12.93331 -5.99998,-20.533286 -5.99999,-7.733313 -16.26663,-7.733313 -10.26664,0 -16.26662,7.733313 -5.99999,7.599976 -5.99999,20.533286 0,12.9333 5.99999,20.53328 5.99998,7.59998 16.26662,7.59998 10.26664,0 16.26663,-7.59998 5.99998,-7.59998 5.99998,-20.53328 z"
           id="path2618" />
        <path
           d="m 452.08998,147.98261 q 0,3.06666 -2,5.19999 -1.86666,2.13332 -5.33332,2.13332 -3.46666,0 -5.46665,-2.13332 -1.86666,-2.13333 -1.86666,-5.19999 0,-3.06666 1.86666,-5.19999 1.99999,-2.13333 5.46665,-2.13333 3.46666,0 5.33332,2.13333 2,2.13333 2,5.19999 z"
           id="path2620" />
        <path
           d="m 468.50243,119.18268 q 0,-9.06664 2.53332,-15.73329 2.66666,-6.799984 6.79999,-11.333305 4.26665,-4.533322 9.59997,-6.66665 5.46666,-2.266661 11.19997,-2.266661 12.66664,0 20.13329,8.266646 7.59998,8.266645 7.59998,25.4666 0,1.06667 -0.13334,2.13333 0,1.06666 -0.13333,1.99999 H 477.7024 q 0.4,12.66664 6.26665,19.46662 5.86666,6.79998 18.66662,6.79998 7.06665,0 11.19998,-1.33333 4.13332,-1.33333 5.99998,-2.26666 l 1.6,7.46665 q -1.86667,1.06666 -7.06665,2.53333 -5.06666,1.46666 -11.99997,1.46666 -9.06665,0 -15.46663,-2.66666 -6.39998,-2.66666 -10.53331,-7.46665 -4.13332,-4.79999 -5.99998,-11.3333 -1.86666,-6.66665 -1.86666,-14.5333 z m 48.93321,-5.46665 q -0.26667,-10.79997 -5.06666,-16.799958 -4.79999,-5.999984 -13.59996,-5.999984 -4.66666,0 -8.39998,1.866662 -3.59999,1.866661 -6.39999,5.066653 -2.66665,3.066657 -4.26665,7.199977 -1.46666,4.13333 -1.73333,8.66665 z"
           id="path2622" />
        <path
           d="m 598.74583,151.31593 q -3.86666,1.06667 -10.39997,2.4 -6.53332,1.33333 -15.99996,1.33333 -7.73332,0 -12.9333,-2.26666 -5.19999,-2.26666 -8.39998,-6.39999 -3.19999,-4.13332 -4.66666,-9.99997 -1.33333,-5.86665 -1.33333,-12.9333 V 84.78277 h 8.66665 v 35.86657 q 0,7.33332 1.06666,12.39997 1.06666,5.06666 3.46666,8.26665 2.39999,3.06666 6.13332,4.53332 3.86665,1.33333 9.33331,1.33333 6.13331,0 10.66664,-0.66666 4.53332,-0.66667 5.73331,-1.2 V 84.78277 h 8.66665 z"
           id="path2624" />
      </g>
      <g
         aria-label="European Flare Time Series Oracle"
         id="text5997-7-9"
         style="font-weight:300;font-size:30.0436px;line-height:1.25;font-family:Ubuntu;-inkscape-font-specification:'Ubuntu Light';letter-spacing:2.69197px;display:inline;fill:#003399;fill-opacity:1;stroke-width:0.225328;filter:url(#filter882)"
         transform="matrix(0.15252796,0,0,0.15252796,-37.341327,64.070077)">
        <path
           d="m 60.363287,205.41206 v -20.82021 h 12.01744 v 1.77257 h -9.974475 v 7.24051 h 8.892905 v 1.74253 h -8.892905 v 8.29203 H 73.16186 v 1.77257 z"
           style="stroke-width:0.225328"
           id="path2553" />
        <path
           d="m 91.292486,204.87128 q -0.871264,0.24035 -2.343401,0.54078 -1.472136,0.30044 -3.605232,0.30044 -1.742528,0 -2.914229,-0.51074 -1.1717,-0.51074 -1.892747,-1.44209 -0.721046,-0.93136 -1.051526,-2.25327 -0.300436,-1.32192 -0.300436,-2.91423 v -8.71265 h 1.952834 v 8.08173 q 0,1.6524 0.240349,2.79406 0.240349,1.14165 0.781134,1.8627 0.540785,0.691 1.382005,1.02148 0.871265,0.30044 2.103052,0.30044 1.382006,0 2.403488,-0.15022 1.021483,-0.15022 1.291875,-0.27039 v -13.6398 h 1.952834 z"
           style="stroke-width:0.225328"
           id="path2555" />
        <path
           d="m 104.42038,189.57909 q 0.9614,0 1.80262,0.15021 0.87126,0.15022 1.20174,0.30044 l -0.39057,1.68244 q -0.24034,-0.12017 -0.99143,-0.24035 -0.72105,-0.15021 -1.92279,-0.15021 -1.26184,0 -2.04297,0.18026 -0.75109,0.18026 -0.99144,0.30043 v 13.60975 h -1.952833 v -14.81149 q 0.75109,-0.33048 2.073013,-0.66096 1.32191,-0.36052 3.21466,-0.36052 z"
           style="stroke-width:0.225328"
           id="path2557" />
        <path
           d="m 126.28158,197.66081 q 0,1.83266 -0.54079,3.33484 -0.51074,1.50218 -1.47213,2.55371 -0.93135,1.05153 -2.22323,1.6524 -1.29187,0.57083 -2.85414,0.57083 -1.56227,0 -2.85414,-0.57083 -1.29188,-0.60087 -2.25327,-1.6524 -0.93136,-1.05153 -1.47214,-2.55371 -0.51074,-1.50218 -0.51074,-3.33484 0,-1.83265 0.51074,-3.33483 0.54078,-1.50218 1.47214,-2.55371 0.96139,-1.08157 2.25327,-1.6524 1.29187,-0.60087 2.85414,-0.60087 1.56227,0 2.85414,0.60087 1.29188,0.57083 2.22323,1.6524 0.96139,1.05153 1.47213,2.55371 0.54079,1.50218 0.54079,3.33483 z m -2.07301,0 q 0,-2.91422 -1.35196,-4.62671 -1.35196,-1.74253 -3.66532,-1.74253 -2.31336,0 -3.66532,1.74253 -1.35196,1.71249 -1.35196,4.62671 0,2.91423 1.35196,4.62672 1.35196,1.71248 3.66532,1.71248 2.31336,0 3.66532,-1.71248 1.35196,-1.71249 1.35196,-4.62672 z"
           style="stroke-width:0.225328"
           id="path2559" />
        <path
           d="m 135.16347,202.61801 q 0.27039,0.2103 0.66096,0.45065 0.42061,0.24035 0.96139,0.45066 0.54079,0.2103 1.1717,0.36052 0.63092,0.12017 1.32192,0.12017 1.44209,0 2.40349,-0.48069 0.99144,-0.51074 1.59231,-1.35197 0.60087,-0.87126 0.87126,-2.01292 0.2704,-1.1717 0.2704,-2.46357 0,-3.06445 -1.53223,-4.6868 -1.53222,-1.6524 -4.05588,-1.6524 -1.4421,0 -2.3434,0.15022 -0.87127,0.12017 -1.32192,0.27039 z m 0,8.35212 h -1.95284 v -20.54982 q 0.87127,-0.30044 2.22323,-0.57083 1.35196,-0.27039 3.42497,-0.27039 1.71249,0 3.09449,0.57082 1.41205,0.54079 2.40349,1.59232 1.02148,1.05152 1.56227,2.5537 0.57083,1.50218 0.57083,3.39493 0,1.77257 -0.4807,3.27475 -0.45066,1.47214 -1.35196,2.55371 -0.90131,1.05152 -2.22323,1.65239 -1.29188,0.60088 -2.97432,0.60088 -1.53222,0 -2.67388,-0.42061 -1.11161,-0.45066 -1.62235,-0.84122 z"
           style="stroke-width:0.225328"
           id="path2561" />
        <path
           d="m 152.51624,197.63077 q 0,-2.04296 0.57083,-3.54514 0.60087,-1.53223 1.53223,-2.55371 0.96139,-1.02148 2.16314,-1.50218 1.23178,-0.51074 2.52366,-0.51074 2.85414,0 4.53658,1.8627 1.71249,1.86271 1.71249,5.73833 0,0.24035 -0.0301,0.4807 0,0.24035 -0.03,0.45065 h -10.90583 q 0.0901,2.85414 1.41205,4.38637 1.32192,1.53222 4.20611,1.53222 1.59231,0 2.52366,-0.30044 0.93135,-0.30043 1.35196,-0.51074 l 0.36052,1.68245 q -0.42061,0.24034 -1.59231,0.57082 -1.14165,0.33048 -2.70392,0.33048 -2.04297,0 -3.48506,-0.60087 -1.44209,-0.60087 -2.37344,-1.68244 -0.93136,-1.08157 -1.35197,-2.55371 -0.42061,-1.50218 -0.42061,-3.27475 z m 11.02601,-1.23179 q -0.0601,-2.43353 -1.14166,-3.78549 -1.08157,-1.35196 -3.06445,-1.35196 -1.05152,0 -1.89275,0.42061 -0.81117,0.42061 -1.44209,1.14166 -0.60087,0.691 -0.96139,1.62235 -0.33048,0.93135 -0.39057,1.95283 z"
           style="stroke-width:0.225328"
           id="path2563" />
        <path
           d="m 177.52545,204.00001 q 1.14166,0 1.98288,-0.0601 0.87126,-0.0901 1.47213,-0.21031 v -5.46793 q -0.33048,-0.15022 -1.05152,-0.30044 -0.72105,-0.18026 -1.98288,-0.18026 -0.72105,0 -1.50218,0.12017 -0.78113,0.0901 -1.44209,0.45066 -0.66096,0.33048 -1.08157,0.93135 -0.42061,0.60087 -0.42061,1.59231 0,0.87126 0.27039,1.47214 0.30044,0.60087 0.81118,0.96139 0.54078,0.36052 1.26183,0.54079 0.75109,0.15021 1.68244,0.15021 z M 177.34519,189.519 q 1.53222,0 2.58375,0.45065 1.08157,0.42061 1.74253,1.20175 0.66096,0.75109 0.96139,1.80261 0.30044,1.05153 0.30044,2.28332 v 9.79421 q -0.30044,0.0901 -0.87127,0.21031 -0.57082,0.0901 -1.32191,0.2103 -0.75109,0.12018 -1.68245,0.18026 -0.9013,0.0901 -1.8627,0.0901 -1.23179,0 -2.28331,-0.27039 -1.02149,-0.27039 -1.80262,-0.84122 -0.75109,-0.60087 -1.20174,-1.50218 -0.42061,-0.93135 -0.42061,-2.25327 0,-1.26183 0.48069,-2.16314 0.4807,-0.90131 1.35197,-1.47214 0.87126,-0.60087 2.073,-0.87126 1.20175,-0.27039 2.6138,-0.27039 0.42061,0 0.87126,0.0601 0.4807,0.0301 0.90131,0.12018 0.45065,0.0601 0.75109,0.15022 0.33048,0.0601 0.45065,0.12017 v -0.96139 q 0,-0.81118 -0.12017,-1.56227 -0.12017,-0.78113 -0.54078,-1.38201 -0.39057,-0.63091 -1.14166,-0.99144 -0.72105,-0.39056 -1.92279,-0.39056 -1.71249,0 -2.55371,0.24035 -0.84122,0.24035 -1.23179,0.39056 l -0.27039,-1.71248 q 0.51074,-0.24035 1.56227,-0.45066 1.08157,-0.2103 2.58375,-0.2103 z"
           style="stroke-width:0.225328"
           id="path2565" />
        <path
           d="m 190.63551,190.42031 q 0.87126,-0.24035 2.3434,-0.54079 1.47213,-0.30043 3.60523,-0.30043 1.77257,0 2.94427,0.51074 1.20175,0.51074 1.89275,1.47213 0.72105,0.93136 1.02148,2.25327 0.30044,1.32192 0.30044,2.91423 v 8.6826 h -1.95284 v -8.05168 q 0,-1.6524 -0.24034,-2.79406 -0.21031,-1.14165 -0.75109,-1.8627 -0.51075,-0.72105 -1.38201,-1.02148 -0.84122,-0.33048 -2.1331,-0.33048 -1.382,0 -2.40348,0.15022 -0.99144,0.15021 -1.29188,0.27039 v 13.63979 h -1.95283 z"
           style="stroke-width:0.225328"
           id="path2567" />
        <path
           d="m 220.08062,205.41206 v -20.82021 h 11.86722 v 1.77257 h -9.82426 v 7.33064 h 8.71265 v 1.77257 h -8.71265 v 9.94443 z"
           style="stroke-width:0.225328"
           id="path2569" />
        <path
           d="m 242.19671,205.68246 q -0.99144,-0.03 -1.74253,-0.2704 -0.72105,-0.2103 -1.23179,-0.66096 -0.4807,-0.48069 -0.75109,-1.20174 -0.24035,-0.75109 -0.24035,-1.8627 v -19.22791 l 1.95284,-0.36052 v 19.52834 q 0,0.72105 0.12017,1.1717 0.15022,0.42061 0.42061,0.691 0.27039,0.24035 0.691,0.36053 0.45066,0.12017 1.05153,0.2103 z"
           style="stroke-width:0.225328"
           id="path2571" />
        <path
           d="m 253.53701,204.00001 q 1.14166,0 1.98288,-0.0601 0.87126,-0.0901 1.47213,-0.21031 v -5.46793 q -0.33048,-0.15022 -1.05152,-0.30044 -0.72105,-0.18026 -1.98288,-0.18026 -0.72105,0 -1.50218,0.12017 -0.78113,0.0901 -1.44209,0.45066 -0.66096,0.33048 -1.08157,0.93135 -0.42061,0.60087 -0.42061,1.59231 0,0.87126 0.27039,1.47214 0.30043,0.60087 0.81118,0.96139 0.54078,0.36052 1.26183,0.54079 0.75109,0.15021 1.68244,0.15021 z M 253.35675,189.519 q 1.53222,0 2.58375,0.45065 1.08157,0.42061 1.74253,1.20175 0.66095,0.75109 0.96139,1.80261 0.30044,1.05153 0.30044,2.28332 v 9.79421 q -0.30044,0.0901 -0.87127,0.21031 -0.57083,0.0901 -1.32192,0.2103 -0.75109,0.12018 -1.68244,0.18026 -0.90131,0.0901 -1.8627,0.0901 -1.23179,0 -2.28331,-0.27039 -1.02149,-0.27039 -1.80262,-0.84122 -0.75109,-0.60087 -1.20174,-1.50218 -0.42061,-0.93135 -0.42061,-2.25327 0,-1.26183 0.48069,-2.16314 0.4807,-0.90131 1.35196,-1.47214 0.87127,-0.60087 2.07301,-0.87126 1.20175,-0.27039 2.6138,-0.27039 0.42061,0 0.87126,0.0601 0.4807,0.0301 0.90131,0.12018 0.45065,0.0601 0.75109,0.15022 0.33048,0.0601 0.45065,0.12017 v -0.96139 q 0,-0.81118 -0.12017,-1.56227 -0.12018,-0.78113 -0.54079,-1.38201 -0.39056,-0.63091 -1.14165,-0.99144 -0.72105,-0.39056 -1.92279,-0.39056 -1.71249,0 -2.55371,0.24035 -0.84122,0.24035 -1.23179,0.39056 l -0.27039,-1.71248 q 0.51074,-0.24035 1.56227,-0.45066 1.08157,-0.2103 2.58375,-0.2103 z"
           style="stroke-width:0.225328"
           id="path2573" />
        <path
           d="m 271.93475,189.57909 q 0.96139,0 1.80261,0.15021 0.87127,0.15022 1.20175,0.30044 l -0.39057,1.68244 q -0.24035,-0.12017 -0.99144,-0.24035 -0.72104,-0.15021 -1.92279,-0.15021 -1.26183,0 -2.04296,0.18026 -0.75109,0.18026 -0.99144,0.30043 v 13.60975 h -1.95284 v -14.81149 q 0.75109,-0.33048 2.07301,-0.66096 1.32192,-0.36052 3.21467,-0.36052 z"
           style="stroke-width:0.225328"
           id="path2575" />
        <path
           d="m 279.61536,197.63077 q 0,-2.04296 0.57083,-3.54514 0.60088,-1.53223 1.53223,-2.55371 0.96139,-1.02148 2.16314,-1.50218 1.23178,-0.51074 2.52366,-0.51074 2.85414,0 4.53658,1.8627 1.71249,1.86271 1.71249,5.73833 0,0.24035 -0.0301,0.4807 0,0.24035 -0.03,0.45065 h -10.90583 q 0.0901,2.85414 1.41205,4.38637 1.32192,1.53222 4.20611,1.53222 1.59231,0 2.52366,-0.30044 0.93135,-0.30043 1.35196,-0.51074 l 0.36052,1.68245 q -0.42061,0.24034 -1.59231,0.57082 -1.14165,0.33048 -2.70392,0.33048 -2.04297,0 -3.48506,-0.60087 -1.44209,-0.60087 -2.37344,-1.68244 -0.93135,-1.08157 -1.35196,-2.55371 -0.42062,-1.50218 -0.42062,-3.27475 z m 11.02601,-1.23179 q -0.0601,-2.43353 -1.14166,-3.78549 -1.08157,-1.35196 -3.06445,-1.35196 -1.05152,0 -1.89274,0.42061 -0.81118,0.42061 -1.4421,1.14166 -0.60087,0.691 -0.96139,1.62235 -0.33048,0.93135 -0.39057,1.95283 z"
           style="stroke-width:0.225328"
           id="path2577" />
        <path
           d="m 322.62422,184.59185 v 1.77257 h -6.66968 v 19.04764 h -2.04297 v -19.04764 h -6.66967 v -1.77257 z"
           style="stroke-width:0.225328"
           id="path2579" />
        <path
           d="m 330.41842,205.41206 h -1.95283 v -15.53254 h 1.95283 z m 0.45065,-20.21934 q 0,0.691 -0.42061,1.11161 -0.42061,0.39057 -1.02148,0.39057 -0.60087,0 -1.02148,-0.39057 -0.42061,-0.42061 -0.42061,-1.11161 0,-0.691 0.42061,-1.08157 0.42061,-0.42061 1.02148,-0.42061 0.60087,0 1.02148,0.42061 0.42061,0.39057 0.42061,1.08157 z"
           style="stroke-width:0.225328"
           id="path2581" />
        <path
           d="m 338.25773,190.42031 q 0.87126,-0.24035 2.25327,-0.54079 1.41205,-0.30043 3.63528,-0.30043 2.94427,0 4.26619,1.71248 0.15022,-0.12017 0.57083,-0.39057 0.45065,-0.30043 1.11161,-0.60087 0.66096,-0.30043 1.53222,-0.51074 0.90131,-0.2103 1.98288,-0.2103 1.77257,0 2.85414,0.54078 1.11162,0.51074 1.71249,1.47214 0.60087,0.93135 0.81117,2.25327 0.21031,1.32192 0.21031,2.88418 v 8.6826 h -1.95283 v -8.05168 q 0,-1.53222 -0.15022,-2.64384 -0.12018,-1.14165 -0.54079,-1.8627 -0.39056,-0.75109 -1.14165,-1.11161 -0.75109,-0.39057 -1.95284,-0.39057 -0.90131,0 -1.6524,0.18026 -0.72104,0.15022 -1.26183,0.39057 -0.54078,0.24035 -0.90131,0.48069 -0.33047,0.24035 -0.48069,0.36053 0.27039,0.78113 0.39056,1.77257 0.15022,0.9614 0.15022,2.04297 v 8.83281 h -1.95283 v -8.05168 q 0,-1.53222 -0.15022,-2.64384 -0.12017,-1.14165 -0.54078,-1.8627 -0.42062,-0.75109 -1.20175,-1.11161 -0.75109,-0.39057 -2.01292,-0.39057 -1.41205,0 -2.40349,0.15022 -0.96139,0.15021 -1.23179,0.27039 v 13.63979 h -1.95283 z"
           style="stroke-width:0.225328"
           id="path2583" />
        <path
           d="m 365.9544,197.63077 q 0,-2.04296 0.57083,-3.54514 0.60087,-1.53223 1.53222,-2.55371 0.9614,-1.02148 2.16314,-1.50218 1.23179,-0.51074 2.52366,-0.51074 2.85415,0 4.53659,1.8627 1.71248,1.86271 1.71248,5.73833 0,0.24035 -0.03,0.4807 0,0.24035 -0.03,0.45065 h -10.90583 q 0.0901,2.85414 1.41205,4.38637 1.32192,1.53222 4.2061,1.53222 1.59231,0 2.52366,-0.30044 0.93136,-0.30043 1.35197,-0.51074 l 0.36052,1.68245 q -0.42061,0.24034 -1.59231,0.57082 -1.14166,0.33048 -2.70393,0.33048 -2.04296,0 -3.48505,-0.60087 -1.4421,-0.60087 -2.37345,-1.68244 -0.93135,-1.08157 -1.35196,-2.55371 -0.42061,-1.50218 -0.42061,-3.27475 z m 11.026,-1.23179 q -0.0601,-2.43353 -1.14166,-3.78549 -1.08157,-1.35196 -3.06444,-1.35196 -1.05153,0 -1.89275,0.42061 -0.81118,0.42061 -1.44209,1.14166 -0.60087,0.691 -0.9614,1.62235 -0.33048,0.93135 -0.39056,1.95283 z"
           style="stroke-width:0.225328"
           id="path2585" />
        <path
           d="m 400.22058,204.09015 q 2.43353,0 3.7855,-0.87127 1.35196,-0.90131 1.35196,-2.88418 0,-1.14166 -0.45066,-1.89275 -0.42061,-0.78114 -1.14165,-1.29188 -0.72105,-0.54078 -1.6524,-0.9013 -0.93135,-0.39057 -1.95284,-0.81118 -1.29187,-0.51074 -2.31335,-1.05153 -1.02149,-0.54078 -1.74253,-1.20174 -0.72105,-0.691 -1.11161,-1.56227 -0.36053,-0.87126 -0.36053,-2.04296 0,-2.67388 1.77257,-4.05589 1.77258,-1.38201 4.92715,-1.38201 0.84123,0 1.6524,0.12018 0.81118,0.12017 1.50218,0.33048 0.72105,0.18026 1.29188,0.42061 0.60087,0.24035 0.99144,0.51074 l -0.72105,1.71249 q -0.87126,-0.60088 -2.1331,-0.9614 -1.23178,-0.36052 -2.67388,-0.36052 -0.99143,0 -1.83266,0.2103 -0.81117,0.18026 -1.41204,0.63092 -0.60088,0.42061 -0.9614,1.08157 -0.33048,0.66096 -0.33048,1.59231 0,0.96139 0.36052,1.62235 0.36053,0.66096 0.99144,1.14166 0.66096,0.4807 1.53223,0.87126 0.87126,0.39057 1.89274,0.81118 1.23179,0.51074 2.31336,1.02148 1.11161,0.51074 1.92279,1.20175 0.81118,0.691 1.29188,1.68244 0.48069,0.99144 0.48069,2.43353 0,2.8241 -1.98287,4.23615 -1.95284,1.41205 -5.31772,1.41205 -1.20175,0 -2.19318,-0.15022 -0.99144,-0.15022 -1.77258,-0.36052 -0.78113,-0.24035 -1.32192,-0.4807 -0.54078,-0.24035 -0.84122,-0.42061 l 0.66096,-1.77257 q 0.30044,0.18026 0.81118,0.42061 0.51074,0.24035 1.20174,0.48069 0.69101,0.21031 1.56227,0.36053 0.87127,0.15022 1.92279,0.15022 z"
           style="stroke-width:0.225328"
           id="path2587" />
        <path
           d="m 412.93444,197.63077 q 0,-2.04296 0.57083,-3.54514 0.60087,-1.53223 1.53222,-2.55371 0.9614,-1.02148 2.16314,-1.50218 1.23179,-0.51074 2.52367,-0.51074 2.85414,0 4.53658,1.8627 1.71248,1.86271 1.71248,5.73833 0,0.24035 -0.03,0.4807 0,0.24035 -0.03,0.45065 h -10.90583 q 0.0901,2.85414 1.41205,4.38637 1.32192,1.53222 4.2061,1.53222 1.59231,0 2.52367,-0.30044 0.93135,-0.30043 1.35196,-0.51074 l 0.36052,1.68245 q -0.42061,0.24034 -1.59231,0.57082 -1.14166,0.33048 -2.70392,0.33048 -2.04297,0 -3.48506,-0.60087 -1.44209,-0.60087 -2.37345,-1.68244 -0.93135,-1.08157 -1.35196,-2.55371 -0.42061,-1.50218 -0.42061,-3.27475 z m 11.026,-1.23179 q -0.0601,-2.43353 -1.14165,-3.78549 -1.08157,-1.35196 -3.06445,-1.35196 -1.05153,0 -1.89275,0.42061 -0.81118,0.42061 -1.44209,1.14166 -0.60087,0.691 -0.9614,1.62235 -0.33048,0.93135 -0.39056,1.95283 z"
           style="stroke-width:0.225328"
           id="path2589" />
        <path
           d="m 438.33422,189.57909 q 0.9614,0 1.80262,0.15021 0.87126,0.15022 1.20174,0.30044 l -0.39056,1.68244 q -0.24035,-0.12017 -0.99144,-0.24035 -0.72105,-0.15021 -1.92279,-0.15021 -1.26183,0 -2.04297,0.18026 -0.75109,0.18026 -0.99144,0.30043 v 13.60975 h -1.95283 v -14.81149 q 0.75109,-0.33048 2.07301,-0.66096 1.32192,-0.36052 3.21466,-0.36052 z"
           style="stroke-width:0.225328"
           id="path2591" />
        <path
           d="m 448.89901,205.41206 h -1.95283 v -15.53254 h 1.95283 z m 0.45065,-20.21934 q 0,0.691 -0.42061,1.11161 -0.42061,0.39057 -1.02148,0.39057 -0.60087,0 -1.02148,-0.39057 -0.42061,-0.42061 -0.42061,-1.11161 0,-0.691 0.42061,-1.08157 0.42061,-0.42061 1.02148,-0.42061 0.60087,0 1.02148,0.42061 0.42061,0.39057 0.42061,1.08157 z"
           style="stroke-width:0.225328"
           id="path2593" />
        <path
           d="m 455.80694,197.63077 q 0,-2.04296 0.57083,-3.54514 0.60087,-1.53223 1.53222,-2.55371 0.9614,-1.02148 2.16314,-1.50218 1.23179,-0.51074 2.52366,-0.51074 2.85414,0 4.53659,1.8627 1.71248,1.86271 1.71248,5.73833 0,0.24035 -0.03,0.4807 0,0.24035 -0.03,0.45065 h -10.90582 q 0.0901,2.85414 1.41205,4.38637 1.32192,1.53222 4.2061,1.53222 1.59231,0 2.52366,-0.30044 0.93135,-0.30043 1.35197,-0.51074 l 0.36052,1.68245 q -0.42061,0.24034 -1.59231,0.57082 -1.14166,0.33048 -2.70393,0.33048 -2.04296,0 -3.48505,-0.60087 -1.4421,-0.60087 -2.37345,-1.68244 -0.93135,-1.08157 -1.35196,-2.55371 -0.42061,-1.50218 -0.42061,-3.27475 z m 11.026,-1.23179 q -0.0601,-2.43353 -1.14166,-3.78549 -1.08157,-1.35196 -3.06444,-1.35196 -1.05153,0 -1.89275,0.42061 -0.81118,0.42061 -1.44209,1.14166 -0.60088,0.691 -0.9614,1.62235 -0.33048,0.93135 -0.39057,1.95283 z"
           style="stroke-width:0.225328"
           id="path2595" />
        <path
           d="m 479.10367,204.03006 q 1.68244,0 2.76401,-0.54079 1.11161,-0.57083 1.11161,-1.89274 0,-0.63092 -0.2103,-1.08157 -0.18026,-0.45066 -0.63092,-0.81118 -0.45065,-0.36052 -1.20174,-0.691 -0.72105,-0.33048 -1.80262,-0.78114 -0.87126,-0.36052 -1.6524,-0.72104 -0.78113,-0.39057 -1.382,-0.87127 -0.60087,-0.51074 -0.9614,-1.20174 -0.36052,-0.691 -0.36052,-1.68244 0,-1.89275 1.41205,-3.06445 1.44209,-1.1717 3.93571,-1.1717 1.59231,0 2.61379,0.27039 1.05153,0.27039 1.47214,0.4807 l -0.45065,1.74253 q -0.36053,-0.18026 -1.23179,-0.4807 -0.84122,-0.30044 -2.49362,-0.30044 -0.66096,0 -1.26183,0.15022 -0.57083,0.12018 -1.02148,0.42061 -0.45066,0.2704 -0.72105,0.72105 -0.27039,0.42061 -0.27039,1.05153 0,0.63091 0.24035,1.08156 0.24034,0.45066 0.691,0.81118 0.4807,0.33048 1.14166,0.63092 0.691,0.30043 1.56226,0.66096 0.90131,0.36052 1.71249,0.75109 0.84122,0.36052 1.47213,0.9013 0.63092,0.51075 1.02149,1.26184 0.39056,0.72104 0.39056,1.83266 0,2.10305 -1.59231,3.18462 -1.56226,1.08157 -4.29623,1.08157 -2.04297,0 -3.12454,-0.36053 -1.08157,-0.33048 -1.44209,-0.51074 l 0.51074,-1.77257 q 0.0901,0.0601 0.39057,0.21031 0.30043,0.12017 0.81118,0.30043 0.51074,0.15022 1.20174,0.27039 0.72105,0.12018 1.6524,0.12018 z"
           style="stroke-width:0.225328"
           id="path2597" />
        <path
           d="m 519.82638,194.98693 q 0,2.67388 -0.78114,4.71685 -0.78113,2.04296 -2.13309,3.42497 -1.32192,1.35196 -3.09449,2.04296 -1.77258,0.69101 -3.75545,0.69101 -1.98288,0 -3.75545,-0.69101 -1.77258,-0.691 -3.12454,-2.04296 -1.32192,-1.38201 -2.10305,-3.42497 -0.78113,-2.04297 -0.78113,-4.71685 0,-2.67388 0.78113,-4.6868 0.78113,-2.04296 2.10305,-3.39492 1.35196,-1.38201 3.12454,-2.07301 1.77257,-0.69101 3.75545,-0.69101 1.98287,0 3.75545,0.69101 1.77257,0.691 3.09449,2.07301 1.35196,1.35196 2.13309,3.39492 0.78114,2.01292 0.78114,4.6868 z m -2.16314,0 q 0,-2.10305 -0.54079,-3.75545 -0.54078,-1.68244 -1.53222,-2.85414 -0.99144,-1.1717 -2.40349,-1.77257 -1.382,-0.63092 -3.12453,-0.63092 -1.74253,0 -3.15458,0.63092 -1.38201,0.60087 -2.37345,1.77257 -0.99143,1.1717 -1.53222,2.85414 -0.54078,1.6524 -0.54078,3.75545 0,2.10306 0.54078,3.7855 0.54079,1.6524 1.53222,2.8241 0.99144,1.1717 2.37345,1.80261 1.41205,0.63092 3.15458,0.63092 1.74253,0 3.12453,-0.63092 1.41205,-0.63091 2.40349,-1.80261 0.99144,-1.1717 1.53222,-2.8241 0.54079,-1.68244 0.54079,-3.7855 z"
           style="stroke-width:0.225328"
           id="path2599" />
        <path
           d="m 532.23559,189.57909 q 0.96139,0 1.80262,0.15021 0.87126,0.15022 1.20174,0.30044 l -0.39057,1.68244 q -0.24035,-0.12017 -0.99144,-0.24035 -0.72104,-0.15021 -1.92279,-0.15021 -1.26183,0 -2.04296,0.18026 -0.75109,0.18026 -0.99144,0.30043 v 13.60975 h -1.95283 v -14.81149 q 0.75109,-0.33048 2.073,-0.66096 1.32192,-0.36052 3.21467,-0.36052 z"
           style="stroke-width:0.225328"
           id="path2601" />
        <path
           d="m 545.74465,204.00001 q 1.14166,0 1.98288,-0.0601 0.87126,-0.0901 1.47213,-0.21031 v -5.46793 q -0.33048,-0.15022 -1.05152,-0.30044 -0.72105,-0.18026 -1.98288,-0.18026 -0.72105,0 -1.50218,0.12017 -0.78113,0.0901 -1.44209,0.45066 -0.66096,0.33048 -1.08157,0.93135 -0.42061,0.60087 -0.42061,1.59231 0,0.87126 0.27039,1.47214 0.30044,0.60087 0.81118,0.96139 0.54078,0.36052 1.26183,0.54079 0.75109,0.15021 1.68244,0.15021 z M 545.56439,189.519 q 1.53222,0 2.58375,0.45065 1.08157,0.42061 1.74253,1.20175 0.66096,0.75109 0.96139,1.80261 0.30044,1.05153 0.30044,2.28332 v 9.79421 q -0.30044,0.0901 -0.87127,0.21031 -0.57082,0.0901 -1.32191,0.2103 -0.75109,0.12018 -1.68245,0.18026 -0.9013,0.0901 -1.8627,0.0901 -1.23179,0 -2.28331,-0.27039 -1.02149,-0.27039 -1.80262,-0.84122 -0.75109,-0.60087 -1.20174,-1.50218 -0.42061,-0.93135 -0.42061,-2.25327 0,-1.26183 0.48069,-2.16314 0.4807,-0.90131 1.35197,-1.47214 0.87126,-0.60087 2.073,-0.87126 1.20175,-0.27039 2.6138,-0.27039 0.42061,0 0.87126,0.0601 0.4807,0.0301 0.90131,0.12018 0.45065,0.0601 0.75109,0.15022 0.33048,0.0601 0.45065,0.12017 v -0.96139 q 0,-0.81118 -0.12017,-1.56227 -0.12017,-0.78113 -0.54078,-1.38201 -0.39057,-0.63091 -1.14166,-0.99144 -0.72105,-0.39056 -1.92279,-0.39056 -1.71249,0 -2.55371,0.24035 -0.84122,0.24035 -1.23179,0.39056 l -0.27039,-1.71248 q 0.51074,-0.24035 1.56227,-0.45066 1.08157,-0.2103 2.58375,-0.2103 z"
           style="stroke-width:0.225328"
           id="path2603" />
        <path
           d="m 565.28405,205.74254 q -1.80262,0 -3.18463,-0.57083 -1.382,-0.57082 -2.31335,-1.62235 -0.90131,-1.08157 -1.38201,-2.55371 -0.4807,-1.50218 -0.4807,-3.30479 0,-1.83266 0.4807,-3.33484 0.51074,-1.50218 1.44209,-2.58375 0.93136,-1.08157 2.25327,-1.6524 1.32192,-0.60087 2.97432,-0.60087 1.26183,0 2.3434,0.2103 1.11161,0.21031 1.71249,0.54079 l -0.51074,1.68244 q -0.60088,-0.30044 -1.35197,-0.4807 -0.75109,-0.18026 -2.01292,-0.18026 -2.58375,0 -3.93571,1.68244 -1.32192,1.6524 -1.32192,4.71685 0,1.382 0.30044,2.5537 0.30043,1.14166 0.96139,1.98288 0.69101,0.81118 1.74253,1.29188 1.08157,0.45065 2.6138,0.45065 1.26183,0 2.10305,-0.27039 0.87126,-0.30044 1.26183,-0.51074 l 0.42061,1.68244 q -0.54079,0.30043 -1.71249,0.57083 -1.14165,0.30043 -2.40348,0.30043 z"
           style="stroke-width:0.225328"
           id="path2605" />
        <path
           d="m 579.33062,205.68246 q -0.99144,-0.03 -1.74253,-0.2704 -0.72105,-0.2103 -1.23179,-0.66096 -0.4807,-0.48069 -0.75109,-1.20174 -0.24035,-0.75109 -0.24035,-1.8627 v -19.22791 l 1.95284,-0.36052 v 19.52834 q 0,0.72105 0.12017,1.1717 0.15022,0.42061 0.42061,0.691 0.27039,0.24035 0.691,0.36053 0.45066,0.12017 1.05153,0.2103 z"
           style="stroke-width:0.225328"
           id="path2607" />
        <path
           d="m 584.84246,197.63077 q 0,-2.04296 0.57083,-3.54514 0.60087,-1.53223 1.53222,-2.55371 0.9614,-1.02148 2.16314,-1.50218 1.23179,-0.51074 2.52367,-0.51074 2.85414,0 4.53658,1.8627 1.71248,1.86271 1.71248,5.73833 0,0.24035 -0.03,0.4807 0,0.24035 -0.03,0.45065 h -10.90583 q 0.0901,2.85414 1.41205,4.38637 1.32192,1.53222 4.2061,1.53222 1.59231,0 2.52367,-0.30044 0.93135,-0.30043 1.35196,-0.51074 l 0.36052,1.68245 q -0.42061,0.24034 -1.59231,0.57082 -1.14166,0.33048 -2.70392,0.33048 -2.04297,0 -3.48506,-0.60087 -1.44209,-0.60087 -2.37345,-1.68244 -0.93135,-1.08157 -1.35196,-2.55371 -0.42061,-1.50218 -0.42061,-3.27475 z m 11.026,-1.23179 q -0.0601,-2.43353 -1.14165,-3.78549 -1.08157,-1.35196 -3.06445,-1.35196 -1.05153,0 -1.89275,0.42061 -0.81118,0.42061 -1.44209,1.14166 -0.60087,0.691 -0.9614,1.62235 -0.33048,0.93135 -0.39056,1.95283 z"
           style="stroke-width:0.225328"
           id="path2609" />
      </g>
    </g>
  </g>
</svg>
