<?xml version="1.0" encoding="UTF-8" standalone="no"?>
<svg
   xmlns:dc="http://purl.org/dc/elements/1.1/"
   xmlns:cc="http://creativecommons.org/ns#"
   xmlns:rdf="http://www.w3.org/1999/02/22-rdf-syntax-ns#"
   xmlns:svg="http://www.w3.org/2000/svg"
   xmlns="http://www.w3.org/2000/svg"
   xmlns:sodipodi="http://sodipodi.sourceforge.net/DTD/sodipodi-0.dtd"
   xmlns:inkscape="http://www.inkscape.org/namespaces/inkscape"
   width="512"
   height="512"
   viewBox="0 0 135.46666 135.46667"
   version="1.1"
   id="svg3949"
   inkscape:version="1.0.1 (0767f8302a, 2020-10-17)"
   sodipodi:docname="logo-ftso-circle-2021.svg">
  <defs
     id="defs3943" />
  <sodipodi:namedview
     id="base"
     pagecolor="#ffffff"
     bordercolor="#666666"
     borderopacity="1.0"
     inkscape:pageopacity="0.0"
     inkscape:pageshadow="2"
     inkscape:zoom="0.49497475"
     inkscape:cx="335.56349"
     inkscape:cy="466.27417"
     inkscape:document-units="mm"
     inkscape:current-layer="layer1"
     inkscape:document-rotation="0"
     showgrid="false"
     units="px"
     inkscape:window-width="1667"
     inkscape:window-height="759"
     inkscape:window-x="101"
     inkscape:window-y="114"
     inkscape:window-maximized="0" />
  <metadata
     id="metadata3946">
    <rdf:RDF>
      <cc:Work
         rdf:about="">
        <dc:format>image/svg+xml</dc:format>
        <dc:type
           rdf:resource="http://purl.org/dc/dcmitype/StillImage" />
        <dc:title></dc:title>
      </cc:Work>
    </rdf:RDF>
  </metadata>
  <g
     inkscape:label="Livello 1"
     inkscape:groupmode="layer"
     id="layer1">
    <path
       id="path4518"
       style="fill:#003399;fill-opacity:1;stroke-width:0.0544963"
       d="M 256,0 A 255.99999,255.99999 0 0 0 0,256 255.99999,255.99999 0 0 0 256,512 255.99999,255.99999 0 0 0 512,256 255.99999,255.99999 0 0 0 256,0 Z m -23.70703,101.11523 c 2.60531,0.031 5.15297,0.74057 7.13476,2.21875 1.52269,1.07512 11.46524,17.29106 26.42383,43.18164 13.16717,22.84452 24.27452,41.47872 24.63282,41.56836 0.35803,0.0899 3.40279,-4.65928 6.80664,-10.48242 7.79286,-13.70678 9.94252,-15.85725 16.12304,-16.48437 6.89711,-0.62722 9.76409,1.25561 15.04883,10.03515 18.00421,30.1906 49.53451,86.00162 49.98242,88.59961 0.71649,4.65852 -2.32998,10.48175 -6.80859,12.99024 l -3.49219,1.9707 H 255.99805 143.85352 l -3.49414,-1.9707 c -4.38906,-2.50849 -7.5232,-8.33152 -6.80665,-12.90039 0.44772,-2.59799 81.77933,-145.21949 87.60157,-153.64063 2.29528,-3.30353 6.79649,-5.13756 11.13867,-5.08594 z m 81.67578,205.04102 c 35.67555,0.0321 63.91562,0.20479 64.11719,0.54102 0.7146,1.25958 -1.16411,11.28768 -2.95508,15.13867 -3.94114,9.04821 -13.43659,15.85737 -26.69336,19.26172 -6.44928,1.61255 -10.92812,1.70117 -110.5332,1.70117 H 134.17969 v -3.58203 c 0,-4.83767 2.77615,-12.45364 6.26953,-17.38086 5.6431,-7.79411 16.66099,-13.52706 28.57422,-14.78125 5.37437,-0.61585 85.48606,-0.95198 144.94531,-0.89844 z m 3.20898,68.89453 -0.53711,5.28516 c -1.25408,14.24421 -12.18275,25.08407 -29.38085,29.20508 -4.65781,1.07512 -13.52553,1.34375 -49.08594,1.34375 h -43.35352 l 0.53711,-4.92774 c 1.0749,-10.75045 8.15224,-20.69453 18.45313,-25.89062 9.40523,-4.83766 10.47977,-4.92578 58.66992,-4.92579 z"
       transform="scale(0.26458333)" />
  </g>
</svg>
