<?xml version="1.0" encoding="UTF-8" standalone="no"?>
<svg
   xmlns:dc="http://purl.org/dc/elements/1.1/"
   xmlns:cc="http://creativecommons.org/ns#"
   xmlns:rdf="http://www.w3.org/1999/02/22-rdf-syntax-ns#"
   xmlns:svg="http://www.w3.org/2000/svg"
   xmlns="http://www.w3.org/2000/svg"
   xmlns:sodipodi="http://sodipodi.sourceforge.net/DTD/sodipodi-0.dtd"
   xmlns:inkscape="http://www.inkscape.org/namespaces/inkscape"
   width="62.314499mm"
   height="26.393991mm"
   viewBox="0 0 62.314499 26.393992"
   version="1.1"
   id="svg4350"
   inkscape:version="1.0.1 (3bc2e813f5, 2020-09-07)"
   sodipodi:docname="logo-ftso-final.svg">
  <defs
     id="defs4344">
    <filter
       inkscape:collect="always"
       style="color-interpolation-filters:sRGB"
       id="filter3650"
       x="-0.017172018"
       width="1.034344"
       y="-0.059256312"
       height="1.1185126">
      <feGaussianBlur
         inkscape:collect="always"
         stdDeviation="0.36188216"
         id="feGaussianBlur3652" />
    </filter>
    <clipPath
       clipPathUnits="userSpaceOnUse"
       id="clipPath2404">
      <g
         id="g2420"
         style="fill:#ffffff"
         transform="translate(0.26798844,-35.199585)">
        <path
           d="m 33.525875,52.688291 c 0,0.926042 -0.740834,1.666875 -1.666875,1.666875 -0.899584,0 -1.640417,-0.740833 -1.640417,-1.666875 0,-0.926041 0.740833,-1.666875 1.666875,-1.666875 0.899583,0.02646 1.640417,0.767292 1.640417,1.666875 z"
           id="path2406"
           style="fill:#ffffff;fill-opacity:1;stroke-width:0.264583" />
        <path
           d="m 30.218583,48.534333 c 0,-0.105833 0,-0.211667 0.02646,-0.291042 0.02646,-0.3175 0.105834,-0.608541 0.238125,-0.899583 0.238125,-0.502708 0.608542,-0.899583 1.084792,-1.164167 0.423333,-0.238125 0.873125,-0.396875 1.349375,-0.449791 0.264583,-0.02646 0.555625,-0.05292 0.820208,-0.05292 h 6.270625 v 0.185208 c -0.02646,0.343959 -0.105833,0.687917 -0.238125,1.031875 -0.238125,0.502709 -0.635,0.926042 -1.164166,1.190625 -0.396875,0.211667 -0.846667,0.343959 -1.296459,0.423334 -0.264583,0.05292 -0.555625,0.05292 -0.846666,0.05292 h -6.244167 z"
           id="path2408"
           style="fill:#ffffff;fill-opacity:1;stroke-width:0.264583" />
        <path
           d="m 45.194,39.723708 c 0,0.15875 0,0.343958 -0.02646,0.502708 -0.07937,0.502709 -0.3175,0.978959 -0.661458,1.349375 -0.3175,0.3175 -0.687917,0.555625 -1.084792,0.714375 -0.476249,0.185209 -0.952499,0.264584 -1.455207,0.291042 H 30.43025 v -0.05292 c 0,-0.396875 0.07937,-0.767292 0.238125,-1.11125 0.238125,-0.529166 0.608541,-0.926041 1.11125,-1.190625 0.396875,-0.238125 0.873125,-0.370416 1.322916,-0.449791 0.291042,-0.02646 0.582084,-0.05292 0.846667,-0.05292 z"
           id="path2410"
           style="fill:#ffffff;stroke-width:0.264583" />
        <path
           d="m 80.796051,39.723708 c 0,0.15875 0,0.343958 -0.02646,0.502708 -0.07937,0.502709 -0.3175,0.978959 -0.661458,1.349375 -0.3175,0.3175 -0.687917,0.555625 -1.084792,0.714375 -0.476249,0.185209 -0.952499,0.264584 -1.455207,0.291042 H 30.43025 v -0.05292 c 0,-0.396875 0.07937,-0.767292 0.238125,-1.11125 0.238125,-0.529166 0.608541,-0.926041 1.11125,-1.190625 0.396875,-0.238125 0.873125,-0.370416 1.322916,-0.449791 0.291042,-0.02646 0.582084,-0.05292 0.846667,-0.05292 z"
           id="path2412"
           style="fill:#ffffff;fill-opacity:1;stroke-width:0.264583"
           sodipodi:nodetypes="ccccccscccsc" />
        <path
           id="path2414"
           style="fill:#ffffff;fill-rule:evenodd;stroke-width:1.14489"
           d="m 60.919922,26.330078 c -2.911017,0 -5.254701,2.241373 -5.429688,5.105469 h -0.01367 v 0.261719 c -3.84e-4,0.02692 -0.0039,0.05306 -0.0039,0.08008 0,0.02702 0.0035,0.05316 0.0039,0.08008 v 21.667969 c -3.87e-4,0.02702 -0.0039,0.05296 -0.0039,0.08008 0,0.02702 0.0035,0.05316 0.0039,0.08008 v 0.556641 h 0.03516 c 0.311539,2.721977 2.591899,4.810546 5.322265,4.810546 2.810669,0 5.094303,-2.088569 5.40625,-4.810546 h 0.03711 v -0.5625 c 3.3e-4,-0.02496 0.0039,-0.04917 0.0039,-0.07422 0,-0.02437 -0.0036,-0.04797 -0.0039,-0.07227 V 31.851562 c 3.3e-4,-0.02496 0.0039,-0.04917 0.0039,-0.07422 0,-0.02437 -0.0036,-0.04797 -0.0039,-0.07227 v -0.269531 h -0.01367 c -0.179554,-2.782899 -2.519093,-5.022383 -5.34375,-5.105469 z"
           transform="matrix(0.26458333,0,0,0.26458333,29.218583,38.723702)" />
        <path
           id="path2416"
           style="fill:#ffffff;fill-opacity:1;stroke-width:0.999999"
           d="m 82.376953,26.279297 v 0.701172 c 0.100006,1.300002 0.400389,2.598439 0.900391,3.898437 0.9,1.900003 2.400393,3.500002 4.40039,4.5 1.5,0.800002 3.20039,1.301563 4.900391,1.601563 0.999999,0.200012 2.099221,0.199218 3.199219,0.199219 h 6.580076 v 0.06055 c 0.13211,-0.0094 0.26378,-0.01953 0.39844,-0.01953 2.94445,0.08663 5.36914,2.510626 5.36914,5.455078 0,3.031057 -2.42403,5.457031 -5.45508,5.457031 -0.10517,0 -0.20874,-0.01147 -0.3125,-0.01758 v 0.05664 h -6.580076 c -1.099998,0 -2.19922,0.0012 -3.199219,0.201172 -1.700001,0.3 -3.400391,0.799608 -4.900391,1.599609 -1.999997,0.999999 -3.50039,2.599998 -4.40039,4.5 -0.500002,1.299999 -0.800385,2.600388 -0.900391,3.900391 v 0.699219 h 23.701167 c 1,0 2.09962,-0.09921 3.09961,-0.199219 1.8,-0.199998 3.49962,-0.801172 5.09961,-1.701172 1.8,-1.000003 3.19961,-2.49844 4.09961,-4.398437 0.5,-1.100002 0.80039,-2.200391 0.90039,-3.400391 0.10001,-0.3 0.0996,-0.699616 0.0996,-1.099609 V 48.171877 37.17969 37.08008 37.0586 c -3e-5,-0.392657 -0.001,-0.783605 -0.0996,-1.078125 -0.1,-1.2 -0.40039,-2.30039 -0.90039,-3.400391 -0.9,-1.899999 -2.29961,-3.400389 -4.09961,-4.40039 -1.59999,-0.900001 -3.29961,-1.499222 -5.09961,-1.699219 -0.99999,-0.100007 -2.09961,-0.201172 -3.09961,-0.201172 z"
           transform="matrix(0.26458333,0,0,0.26458333,29.218583,38.723702)" />
        <path
           id="path2418"
           style="color:#000000;font-style:normal;font-variant:normal;font-weight:normal;font-stretch:normal;font-size:medium;line-height:normal;font-family:sans-serif;font-variant-ligatures:normal;font-variant-position:normal;font-variant-caps:normal;font-variant-numeric:normal;font-variant-alternates:normal;font-variant-east-asian:normal;font-feature-settings:normal;font-variation-settings:normal;text-indent:0;text-align:start;text-decoration:none;text-decoration-line:none;text-decoration-style:solid;text-decoration-color:#000000;letter-spacing:normal;word-spacing:normal;text-transform:none;writing-mode:lr-tb;direction:ltr;text-orientation:mixed;dominant-baseline:auto;baseline-shift:baseline;text-anchor:start;white-space:normal;shape-padding:0;shape-margin:0;inline-size:0;clip-rule:nonzero;display:inline;overflow:visible;visibility:visible;opacity:1;isolation:auto;mix-blend-mode:normal;color-interpolation:sRGB;color-interpolation-filters:linearRGB;solid-color:#000000;solid-opacity:1;vector-effect:none;fill:#ffffff;fill-opacity:1;fill-rule:nonzero;stroke:none;stroke-width:10.5335;stroke-linecap:butt;stroke-linejoin:miter;stroke-miterlimit:4;stroke-dasharray:none;stroke-dashoffset:0;stroke-opacity:1;color-rendering:auto;image-rendering:auto;shape-rendering:auto;text-rendering:auto;enable-background:accumulate;stop-color:#000000;stop-opacity:1"
           d="m 251.03711,172.64844 c -1.66539,3.12868 -2.61524,6.68909 -2.61523,10.45898 -10e-6,12.32298 10.10475,22.42579 22.42773,22.42578 12.32298,1e-5 22.42578,-10.1028 22.42578,-22.42578 0,-3.77014 -0.94964,-7.33015 -2.61523,-10.45898 h -14.09961 c 3.69995,2.00225 6.17968,5.90736 6.17968,10.45898 0,6.63023 -5.26039,11.89258 -11.89062,11.89258 -6.63023,0 -11.89258,-5.26235 -11.89258,-11.89258 0,-4.55162 2.47974,-8.45673 6.17969,-10.45898 z"
           transform="scale(0.26458333)" />
      </g>
    </clipPath>
    <filter
       inkscape:collect="always"
       style="color-interpolation-filters:sRGB"
       id="filter2364"
       x="-0.0074075013"
       width="1.014815"
       y="-0.02561041"
       height="1.0512208">
      <feGaussianBlur
         inkscape:collect="always"
         stdDeviation="0.15610632"
         id="feGaussianBlur2366" />
    </filter>
    <clipPath
       clipPathUnits="userSpaceOnUse"
       id="clipPath3824">
      <g
         id="g3840"
         style="fill:#000000;fill-opacity:1"
         transform="matrix(3.7795276,0,0,3.7795276,-42.547469,-339.12234)">
        <path
           d="m 33.525875,52.688291 c 0,0.926042 -0.740834,1.666875 -1.666875,1.666875 -0.899584,0 -1.640417,-0.740833 -1.640417,-1.666875 0,-0.926041 0.740833,-1.666875 1.666875,-1.666875 0.899583,0.02646 1.640417,0.767292 1.640417,1.666875 z"
           id="path3826"
           style="fill:#000000;fill-opacity:1;stroke-width:0.264583" />
        <path
           d="m 30.218583,48.534333 c 0,-0.105833 0,-0.211667 0.02646,-0.291042 0.02646,-0.3175 0.105834,-0.608541 0.238125,-0.899583 0.238125,-0.502708 0.608542,-0.899583 1.084792,-1.164167 0.423333,-0.238125 0.873125,-0.396875 1.349375,-0.449791 0.264583,-0.02646 0.555625,-0.05292 0.820208,-0.05292 h 6.270625 v 0.185208 c -0.02646,0.343959 -0.105833,0.687917 -0.238125,1.031875 -0.238125,0.502709 -0.635,0.926042 -1.164166,1.190625 -0.396875,0.211667 -0.846667,0.343959 -1.296459,0.423334 -0.264583,0.05292 -0.555625,0.05292 -0.846666,0.05292 h -6.244167 z"
           id="path3828"
           style="fill:#000000;fill-opacity:1;stroke-width:0.264583" />
        <path
           d="m 45.194,39.723708 c 0,0.15875 0,0.343958 -0.02646,0.502708 -0.07937,0.502709 -0.3175,0.978959 -0.661458,1.349375 -0.3175,0.3175 -0.687917,0.555625 -1.084792,0.714375 -0.476249,0.185209 -0.952499,0.264584 -1.455207,0.291042 H 30.43025 v -0.05292 c 0,-0.396875 0.07937,-0.767292 0.238125,-1.11125 0.238125,-0.529166 0.608541,-0.926041 1.11125,-1.190625 0.396875,-0.238125 0.873125,-0.370416 1.322916,-0.449791 0.291042,-0.02646 0.582084,-0.05292 0.846667,-0.05292 z"
           id="path3830"
           style="fill:#000000;fill-opacity:1;stroke-width:0.264583" />
        <path
           d="m 80.796051,39.723708 c 0,0.15875 0,0.343958 -0.02646,0.502708 -0.07937,0.502709 -0.3175,0.978959 -0.661458,1.349375 -0.3175,0.3175 -0.687917,0.555625 -1.084792,0.714375 -0.476249,0.185209 -0.952499,0.264584 -1.455207,0.291042 H 30.43025 v -0.05292 c 0,-0.396875 0.07937,-0.767292 0.238125,-1.11125 0.238125,-0.529166 0.608541,-0.926041 1.11125,-1.190625 0.396875,-0.238125 0.873125,-0.370416 1.322916,-0.449791 0.291042,-0.02646 0.582084,-0.05292 0.846667,-0.05292 z"
           id="path3832"
           style="fill:#000000;fill-opacity:1;stroke-width:0.264583"
           sodipodi:nodetypes="ccccccscccsc" />
        <path
           id="path3834"
           style="fill:#000000;fill-opacity:1;fill-rule:evenodd;stroke-width:1.14489"
           d="m 60.919922,26.330078 c -2.911017,0 -5.254701,2.241373 -5.429688,5.105469 h -0.01367 v 0.261719 c -3.84e-4,0.02692 -0.0039,0.05306 -0.0039,0.08008 0,0.02702 0.0035,0.05316 0.0039,0.08008 v 21.667969 c -3.87e-4,0.02702 -0.0039,0.05296 -0.0039,0.08008 0,0.02702 0.0035,0.05316 0.0039,0.08008 v 0.556641 h 0.03516 c 0.311539,2.721977 2.591899,4.810546 5.322265,4.810546 2.810669,0 5.094303,-2.088569 5.40625,-4.810546 h 0.03711 v -0.5625 c 3.3e-4,-0.02496 0.0039,-0.04917 0.0039,-0.07422 0,-0.02437 -0.0036,-0.04797 -0.0039,-0.07227 V 31.851562 c 3.3e-4,-0.02496 0.0039,-0.04917 0.0039,-0.07422 0,-0.02437 -0.0036,-0.04797 -0.0039,-0.07227 v -0.269531 h -0.01367 c -0.179554,-2.782899 -2.519093,-5.022383 -5.34375,-5.105469 z"
           transform="matrix(0.26458333,0,0,0.26458333,29.218583,38.723702)" />
        <path
           id="path3836"
           style="fill:#000000;fill-opacity:1;stroke-width:0.999999"
           d="m 82.376953,26.279297 v 0.701172 c 0.100006,1.300002 0.400389,2.598439 0.900391,3.898437 0.9,1.900003 2.400393,3.500002 4.40039,4.5 1.5,0.800002 3.20039,1.301563 4.900391,1.601563 0.999999,0.200012 2.099221,0.199218 3.199219,0.199219 h 6.580076 v 0.06055 c 0.13211,-0.0094 0.26378,-0.01953 0.39844,-0.01953 2.94445,0.08663 5.36914,2.510626 5.36914,5.455078 0,3.031057 -2.42403,5.457031 -5.45508,5.457031 -0.10517,0 -0.20874,-0.01147 -0.3125,-0.01758 v 0.05664 h -6.580076 c -1.099998,0 -2.19922,0.0012 -3.199219,0.201172 -1.700001,0.3 -3.400391,0.799608 -4.900391,1.599609 -1.999997,0.999999 -3.50039,2.599998 -4.40039,4.5 -0.500002,1.299999 -0.800385,2.600388 -0.900391,3.900391 v 0.699219 h 23.701167 c 1,0 2.09962,-0.09921 3.09961,-0.199219 1.8,-0.199998 3.49962,-0.801172 5.09961,-1.701172 1.8,-1.000003 3.19961,-2.49844 4.09961,-4.398437 0.5,-1.100002 0.80039,-2.200391 0.90039,-3.400391 0.10001,-0.3 0.0996,-0.699616 0.0996,-1.099609 V 48.171877 37.17969 37.08008 37.0586 c -3e-5,-0.392657 -0.001,-0.783605 -0.0996,-1.078125 -0.1,-1.2 -0.40039,-2.30039 -0.90039,-3.400391 -0.9,-1.899999 -2.29961,-3.400389 -4.09961,-4.40039 -1.59999,-0.900001 -3.29961,-1.499222 -5.09961,-1.699219 -0.99999,-0.100007 -2.09961,-0.201172 -3.09961,-0.201172 z"
           transform="matrix(0.26458333,0,0,0.26458333,29.218583,38.723702)" />
        <path
           id="path3838"
           style="color:#000000;font-style:normal;font-variant:normal;font-weight:normal;font-stretch:normal;font-size:medium;line-height:normal;font-family:sans-serif;font-variant-ligatures:normal;font-variant-position:normal;font-variant-caps:normal;font-variant-numeric:normal;font-variant-alternates:normal;font-variant-east-asian:normal;font-feature-settings:normal;font-variation-settings:normal;text-indent:0;text-align:start;text-decoration:none;text-decoration-line:none;text-decoration-style:solid;text-decoration-color:#000000;letter-spacing:normal;word-spacing:normal;text-transform:none;writing-mode:lr-tb;direction:ltr;text-orientation:mixed;dominant-baseline:auto;baseline-shift:baseline;text-anchor:start;white-space:normal;shape-padding:0;shape-margin:0;inline-size:0;clip-rule:nonzero;display:inline;overflow:visible;visibility:visible;opacity:1;isolation:auto;mix-blend-mode:normal;color-interpolation:sRGB;color-interpolation-filters:linearRGB;solid-color:#000000;solid-opacity:1;vector-effect:none;fill:#000000;fill-opacity:1;fill-rule:nonzero;stroke:none;stroke-width:10.5335;stroke-linecap:butt;stroke-linejoin:miter;stroke-miterlimit:4;stroke-dasharray:none;stroke-dashoffset:0;stroke-opacity:1;color-rendering:auto;image-rendering:auto;shape-rendering:auto;text-rendering:auto;enable-background:accumulate;stop-color:#000000;stop-opacity:1"
           d="m 251.03711,172.64844 c -1.66539,3.12868 -2.61524,6.68909 -2.61523,10.45898 -10e-6,12.32298 10.10475,22.42579 22.42773,22.42578 12.32298,1e-5 22.42578,-10.1028 22.42578,-22.42578 0,-3.77014 -0.94964,-7.33015 -2.61523,-10.45898 h -14.09961 c 3.69995,2.00225 6.17968,5.90736 6.17968,10.45898 0,6.63023 -5.26039,11.89258 -11.89062,11.89258 -6.63023,0 -11.89258,-5.26235 -11.89258,-11.89258 0,-4.55162 2.47974,-8.45673 6.17969,-10.45898 z"
           transform="scale(0.26458333)" />
      </g>
    </clipPath>
    <filter
       inkscape:collect="always"
       style="color-interpolation-filters:sRGB"
       id="filter4290"
       x="-0.051185261"
       width="1.1023705"
       y="-0.11561282"
       height="1.2312256">
      <feGaussianBlur
         inkscape:collect="always"
         stdDeviation="4.1923761"
         id="feGaussianBlur4292" />
    </filter>
  </defs>
  <sodipodi:namedview
     id="base"
     pagecolor="#ffffff"
     bordercolor="#666666"
     borderopacity="1.0"
     inkscape:pageopacity="0.0"
     inkscape:pageshadow="2"
     inkscape:zoom="1.979899"
     inkscape:cx="235.09555"
     inkscape:cy="39.229148"
     inkscape:document-units="mm"
     inkscape:current-layer="layer1"
     inkscape:document-rotation="0"
     showgrid="false"
     lock-margins="true"
     fit-margin-top="5"
     fit-margin-left="5"
     fit-margin-right="5"
     fit-margin-bottom="5"
     inkscape:window-width="1848"
     inkscape:window-height="1016"
     inkscape:window-x="72"
     inkscape:window-y="27"
     inkscape:window-maximized="1" />
  <metadata
     id="metadata4347">
    <rdf:RDF>
      <cc:Work
         rdf:about="">
        <dc:format>image/svg+xml</dc:format>
        <dc:type
           rdf:resource="http://purl.org/dc/dcmitype/StillImage" />
        <dc:title></dc:title>
      </cc:Work>
    </rdf:RDF>
  </metadata>
  <g
     inkscape:label="Livello 1"
     inkscape:groupmode="layer"
     id="layer1"
     transform="translate(-15.877019,-143.28514)">
    <g
       id="g120-6-4"
       style="opacity:0.562423;fill:#002469;fill-opacity:1;filter:url(#filter3650)"
       transform="translate(-8.4730465,109.42996)">
      <path
         d="m 33.525875,52.688291 c 0,0.926042 -0.740834,1.666875 -1.666875,1.666875 -0.899584,0 -1.640417,-0.740833 -1.640417,-1.666875 0,-0.926041 0.740833,-1.666875 1.666875,-1.666875 0.899583,0.02646 1.640417,0.767292 1.640417,1.666875 z"
         id="path86-8-8"
         style="fill:#002469;fill-opacity:1;stroke-width:0.264583" />
      <path
         d="m 30.218583,48.534333 c 0,-0.105833 0,-0.211667 0.02646,-0.291042 0.02646,-0.3175 0.105834,-0.608541 0.238125,-0.899583 0.238125,-0.502708 0.608542,-0.899583 1.084792,-1.164167 0.423333,-0.238125 0.873125,-0.396875 1.349375,-0.449791 0.264583,-0.02646 0.555625,-0.05292 0.820208,-0.05292 h 6.270625 v 0.185208 c -0.02646,0.343959 -0.105833,0.687917 -0.238125,1.031875 -0.238125,0.502709 -0.635,0.926042 -1.164166,1.190625 -0.396875,0.211667 -0.846667,0.343959 -1.296459,0.423334 -0.264583,0.05292 -0.555625,0.05292 -0.846666,0.05292 h -6.244167 z"
         id="path88-9-7"
         style="fill:#002469;fill-opacity:1;stroke-width:0.264583" />
      <path
         d="m 45.194,39.723708 c 0,0.15875 0,0.343958 -0.02646,0.502708 -0.07937,0.502709 -0.3175,0.978959 -0.661458,1.349375 -0.3175,0.3175 -0.687917,0.555625 -1.084792,0.714375 -0.476249,0.185209 -0.952499,0.264584 -1.455207,0.291042 H 30.43025 v -0.05292 c 0,-0.396875 0.07937,-0.767292 0.238125,-1.11125 0.238125,-0.529166 0.608541,-0.926041 1.11125,-1.190625 0.396875,-0.238125 0.873125,-0.370416 1.322916,-0.449791 0.291042,-0.02646 0.582084,-0.05292 0.846667,-0.05292 z"
         id="path90-2-1"
         style="fill:#002469;fill-opacity:1;stroke-width:0.264583" />
      <path
         d="m 80.796051,39.723708 c 0,0.15875 0,0.343958 -0.02646,0.502708 -0.07937,0.502709 -0.3175,0.978959 -0.661458,1.349375 -0.3175,0.3175 -0.687917,0.555625 -1.084792,0.714375 -0.476249,0.185209 -0.952499,0.264584 -1.455207,0.291042 H 30.43025 v -0.05292 c 0,-0.396875 0.07937,-0.767292 0.238125,-1.11125 0.238125,-0.529166 0.608541,-0.926041 1.11125,-1.190625 0.396875,-0.238125 0.873125,-0.370416 1.322916,-0.449791 0.291042,-0.02646 0.582084,-0.05292 0.846667,-0.05292 z"
         id="path90-3-6-7"
         style="fill:#002469;fill-opacity:1;stroke-width:0.264583"
         sodipodi:nodetypes="ccccccscccsc" />
      <path
         id="rect162-6-2"
         style="fill:#002469;fill-opacity:1;fill-rule:evenodd;stroke-width:1.14489"
         d="m 60.919922,26.330078 c -2.911017,0 -5.254701,2.241373 -5.429688,5.105469 h -0.01367 v 0.261719 c -3.84e-4,0.02692 -0.0039,0.05306 -0.0039,0.08008 0,0.02702 0.0035,0.05316 0.0039,0.08008 v 21.667969 c -3.87e-4,0.02702 -0.0039,0.05296 -0.0039,0.08008 0,0.02702 0.0035,0.05316 0.0039,0.08008 v 0.556641 h 0.03516 c 0.311539,2.721977 2.591899,4.810546 5.322265,4.810546 2.810669,0 5.094303,-2.088569 5.40625,-4.810546 h 0.03711 v -0.5625 c 3.3e-4,-0.02496 0.0039,-0.04917 0.0039,-0.07422 0,-0.02437 -0.0036,-0.04797 -0.0039,-0.07227 V 31.851562 c 3.3e-4,-0.02496 0.0039,-0.04917 0.0039,-0.07422 0,-0.02437 -0.0036,-0.04797 -0.0039,-0.07227 v -0.269531 h -0.01367 c -0.179554,-2.782899 -2.519093,-5.022383 -5.34375,-5.105469 z"
         transform="matrix(0.26458333,0,0,0.26458333,29.218583,38.723702)" />
      <path
         id="path88-6-4-7"
         style="fill:#002469;fill-opacity:1;stroke-width:0.999999"
         d="m 82.376953,26.279297 v 0.701172 c 0.100006,1.300002 0.400389,2.598439 0.900391,3.898437 0.9,1.900003 2.400393,3.500002 4.40039,4.5 1.5,0.800002 3.20039,1.301563 4.900391,1.601563 0.999999,0.200012 2.099221,0.199218 3.199219,0.199219 h 6.580076 v 0.06055 c 0.13211,-0.0094 0.26378,-0.01953 0.39844,-0.01953 2.94445,0.08663 5.36914,2.510626 5.36914,5.455078 0,3.031057 -2.42403,5.457031 -5.45508,5.457031 -0.10517,0 -0.20874,-0.01147 -0.3125,-0.01758 v 0.05664 h -6.580076 c -1.099998,0 -2.19922,0.0012 -3.199219,0.201172 -1.700001,0.3 -3.400391,0.799608 -4.900391,1.599609 -1.999997,0.999999 -3.50039,2.599998 -4.40039,4.5 -0.500002,1.299999 -0.800385,2.600388 -0.900391,3.900391 v 0.699219 h 23.701167 c 1,0 2.09962,-0.09921 3.09961,-0.199219 1.8,-0.199998 3.49962,-0.801172 5.09961,-1.701172 1.8,-1.000003 3.19961,-2.49844 4.09961,-4.398437 0.5,-1.100002 0.80039,-2.200391 0.90039,-3.400391 0.10001,-0.3 0.0996,-0.699616 0.0996,-1.099609 V 48.171877 37.17969 37.08008 37.0586 c -3e-5,-0.392657 -0.001,-0.783605 -0.0996,-1.078125 -0.1,-1.2 -0.40039,-2.30039 -0.90039,-3.400391 -0.9,-1.899999 -2.29961,-3.400389 -4.09961,-4.40039 -1.59999,-0.900001 -3.29961,-1.499222 -5.09961,-1.699219 -0.99999,-0.100007 -2.09961,-0.201172 -3.09961,-0.201172 z"
         transform="matrix(0.26458333,0,0,0.26458333,29.218583,38.723702)" />
      <path
         id="path1090-9-2"
         style="color:#000000;font-style:normal;font-variant:normal;font-weight:normal;font-stretch:normal;font-size:medium;line-height:normal;font-family:sans-serif;font-variant-ligatures:normal;font-variant-position:normal;font-variant-caps:normal;font-variant-numeric:normal;font-variant-alternates:normal;font-variant-east-asian:normal;font-feature-settings:normal;font-variation-settings:normal;text-indent:0;text-align:start;text-decoration:none;text-decoration-line:none;text-decoration-style:solid;text-decoration-color:#000000;letter-spacing:normal;word-spacing:normal;text-transform:none;writing-mode:lr-tb;direction:ltr;text-orientation:mixed;dominant-baseline:auto;baseline-shift:baseline;text-anchor:start;white-space:normal;shape-padding:0;shape-margin:0;inline-size:0;clip-rule:nonzero;display:inline;overflow:visible;visibility:visible;opacity:1;isolation:auto;mix-blend-mode:normal;color-interpolation:sRGB;color-interpolation-filters:linearRGB;solid-color:#000000;solid-opacity:1;vector-effect:none;fill:#002469;fill-opacity:1;fill-rule:nonzero;stroke:none;stroke-width:10.5335;stroke-linecap:butt;stroke-linejoin:miter;stroke-miterlimit:4;stroke-dasharray:none;stroke-dashoffset:0;stroke-opacity:1;color-rendering:auto;image-rendering:auto;shape-rendering:auto;text-rendering:auto;enable-background:accumulate;stop-color:#000000;stop-opacity:1"
         d="m 251.03711,172.64844 c -1.66539,3.12868 -2.61524,6.68909 -2.61523,10.45898 -10e-6,12.32298 10.10475,22.42579 22.42773,22.42578 12.32298,1e-5 22.42578,-10.1028 22.42578,-22.42578 0,-3.77014 -0.94964,-7.33015 -2.61523,-10.45898 h -14.09961 c 3.69995,2.00225 6.17968,5.90736 6.17968,10.45898 0,6.63023 -5.26039,11.89258 -11.89062,11.89258 -6.63023,0 -11.89258,-5.26235 -11.89258,-11.89258 0,-4.55162 2.47974,-8.45673 6.17969,-10.45898 z"
         transform="scale(0.26458333)" />
    </g>
    <g
       id="g120"
       style="fill:#003fb4;fill-opacity:1"
       transform="translate(-8.7231515,109.33232)">
      <path
         d="m 33.525875,52.688291 c 0,0.926042 -0.740834,1.666875 -1.666875,1.666875 -0.899584,0 -1.640417,-0.740833 -1.640417,-1.666875 0,-0.926041 0.740833,-1.666875 1.666875,-1.666875 0.899583,0.02646 1.640417,0.767292 1.640417,1.666875 z"
         id="path86"
         style="fill:#003fb4;fill-opacity:1;stroke-width:0.264583" />
      <path
         d="m 30.218583,48.534333 c 0,-0.105833 0,-0.211667 0.02646,-0.291042 0.02646,-0.3175 0.105834,-0.608541 0.238125,-0.899583 0.238125,-0.502708 0.608542,-0.899583 1.084792,-1.164167 0.423333,-0.238125 0.873125,-0.396875 1.349375,-0.449791 0.264583,-0.02646 0.555625,-0.05292 0.820208,-0.05292 h 6.270625 v 0.185208 c -0.02646,0.343959 -0.105833,0.687917 -0.238125,1.031875 -0.238125,0.502709 -0.635,0.926042 -1.164166,1.190625 -0.396875,0.211667 -0.846667,0.343959 -1.296459,0.423334 -0.264583,0.05292 -0.555625,0.05292 -0.846666,0.05292 h -6.244167 z"
         id="path88"
         style="fill:#003fb4;fill-opacity:1;stroke-width:0.264583" />
      <path
         d="m 45.194,39.723708 c 0,0.15875 0,0.343958 -0.02646,0.502708 -0.07937,0.502709 -0.3175,0.978959 -0.661458,1.349375 -0.3175,0.3175 -0.687917,0.555625 -1.084792,0.714375 -0.476249,0.185209 -0.952499,0.264584 -1.455207,0.291042 H 30.43025 v -0.05292 c 0,-0.396875 0.07937,-0.767292 0.238125,-1.11125 0.238125,-0.529166 0.608541,-0.926041 1.11125,-1.190625 0.396875,-0.238125 0.873125,-0.370416 1.322916,-0.449791 0.291042,-0.02646 0.582084,-0.05292 0.846667,-0.05292 z"
         id="path90"
         style="fill:#003fb4;fill-opacity:1;stroke-width:0.264583" />
      <path
         d="m 80.796051,39.723708 c 0,0.15875 0,0.343958 -0.02646,0.502708 -0.07937,0.502709 -0.3175,0.978959 -0.661458,1.349375 -0.3175,0.3175 -0.687917,0.555625 -1.084792,0.714375 -0.476249,0.185209 -0.952499,0.264584 -1.455207,0.291042 H 30.43025 v -0.05292 c 0,-0.396875 0.07937,-0.767292 0.238125,-1.11125 0.238125,-0.529166 0.608541,-0.926041 1.11125,-1.190625 0.396875,-0.238125 0.873125,-0.370416 1.322916,-0.449791 0.291042,-0.02646 0.582084,-0.05292 0.846667,-0.05292 z"
         id="path90-3"
         style="fill:#003fb4;fill-opacity:1;stroke-width:0.264583"
         sodipodi:nodetypes="ccccccscccsc" />
      <path
         id="rect162"
         style="fill:#003fb4;fill-opacity:1;fill-rule:evenodd;stroke-width:1.14489"
         d="m 60.919922,26.330078 c -2.911017,0 -5.254701,2.241373 -5.429688,5.105469 h -0.01367 v 0.261719 c -3.84e-4,0.02692 -0.0039,0.05306 -0.0039,0.08008 0,0.02702 0.0035,0.05316 0.0039,0.08008 v 21.667969 c -3.87e-4,0.02702 -0.0039,0.05296 -0.0039,0.08008 0,0.02702 0.0035,0.05316 0.0039,0.08008 v 0.556641 h 0.03516 c 0.311539,2.721977 2.591899,4.810546 5.322265,4.810546 2.810669,0 5.094303,-2.088569 5.40625,-4.810546 h 0.03711 v -0.5625 c 3.3e-4,-0.02496 0.0039,-0.04917 0.0039,-0.07422 0,-0.02437 -0.0036,-0.04797 -0.0039,-0.07227 V 31.851562 c 3.3e-4,-0.02496 0.0039,-0.04917 0.0039,-0.07422 0,-0.02437 -0.0036,-0.04797 -0.0039,-0.07227 v -0.269531 h -0.01367 c -0.179554,-2.782899 -2.519093,-5.022383 -5.34375,-5.105469 z"
         transform="matrix(0.26458333,0,0,0.26458333,29.218583,38.723702)" />
      <path
         id="path88-6"
         style="fill:#003fb4;fill-opacity:1;stroke-width:0.999999"
         d="m 82.376953,26.279297 v 0.701172 c 0.100006,1.300002 0.400389,2.598439 0.900391,3.898437 0.9,1.900003 2.400393,3.500002 4.40039,4.5 1.5,0.800002 3.20039,1.301563 4.900391,1.601563 0.999999,0.200012 2.099221,0.199218 3.199219,0.199219 h 6.580076 v 0.06055 c 0.13211,-0.0094 0.26378,-0.01953 0.39844,-0.01953 2.94445,0.08663 5.36914,2.510626 5.36914,5.455078 0,3.031057 -2.42403,5.457031 -5.45508,5.457031 -0.10517,0 -0.20874,-0.01147 -0.3125,-0.01758 v 0.05664 h -6.580076 c -1.099998,0 -2.19922,0.0012 -3.199219,0.201172 -1.700001,0.3 -3.400391,0.799608 -4.900391,1.599609 -1.999997,0.999999 -3.50039,2.599998 -4.40039,4.5 -0.500002,1.299999 -0.800385,2.600388 -0.900391,3.900391 v 0.699219 h 23.701167 c 1,0 2.09962,-0.09921 3.09961,-0.199219 1.8,-0.199998 3.49962,-0.801172 5.09961,-1.701172 1.8,-1.000003 3.19961,-2.49844 4.09961,-4.398437 0.5,-1.100002 0.80039,-2.200391 0.90039,-3.400391 0.10001,-0.3 0.0996,-0.699616 0.0996,-1.099609 V 48.171877 37.17969 37.08008 37.0586 c -3e-5,-0.392657 -0.001,-0.783605 -0.0996,-1.078125 -0.1,-1.2 -0.40039,-2.30039 -0.90039,-3.400391 -0.9,-1.899999 -2.29961,-3.400389 -4.09961,-4.40039 -1.59999,-0.900001 -3.29961,-1.499222 -5.09961,-1.699219 -0.99999,-0.100007 -2.09961,-0.201172 -3.09961,-0.201172 z"
         transform="matrix(0.26458333,0,0,0.26458333,29.218583,38.723702)" />
      <path
         id="path1090"
         style="color:#000000;font-style:normal;font-variant:normal;font-weight:normal;font-stretch:normal;font-size:medium;line-height:normal;font-family:sans-serif;font-variant-ligatures:normal;font-variant-position:normal;font-variant-caps:normal;font-variant-numeric:normal;font-variant-alternates:normal;font-variant-east-asian:normal;font-feature-settings:normal;font-variation-settings:normal;text-indent:0;text-align:start;text-decoration:none;text-decoration-line:none;text-decoration-style:solid;text-decoration-color:#000000;letter-spacing:normal;word-spacing:normal;text-transform:none;writing-mode:lr-tb;direction:ltr;text-orientation:mixed;dominant-baseline:auto;baseline-shift:baseline;text-anchor:start;white-space:normal;shape-padding:0;shape-margin:0;inline-size:0;clip-rule:nonzero;display:inline;overflow:visible;visibility:visible;opacity:1;isolation:auto;mix-blend-mode:normal;color-interpolation:sRGB;color-interpolation-filters:linearRGB;solid-color:#000000;solid-opacity:1;vector-effect:none;fill:#003fb4;fill-opacity:1;fill-rule:nonzero;stroke:none;stroke-width:10.5335;stroke-linecap:butt;stroke-linejoin:miter;stroke-miterlimit:4;stroke-dasharray:none;stroke-dashoffset:0;stroke-opacity:1;color-rendering:auto;image-rendering:auto;shape-rendering:auto;text-rendering:auto;enable-background:accumulate;stop-color:#000000;stop-opacity:1"
         d="m 251.03711,172.64844 c -1.66539,3.12868 -2.61524,6.68909 -2.61523,10.45898 -10e-6,12.32298 10.10475,22.42579 22.42773,22.42578 12.32298,1e-5 22.42578,-10.1028 22.42578,-22.42578 0,-3.77014 -0.94964,-7.33015 -2.61523,-10.45898 h -14.09961 c 3.69995,2.00225 6.17968,5.90736 6.17968,10.45898 0,6.63023 -5.26039,11.89258 -11.89062,11.89258 -6.63023,0 -11.89258,-5.26235 -11.89258,-11.89258 0,-4.55162 2.47974,-8.45673 6.17969,-10.45898 z"
         transform="scale(0.26458333)" />
    </g>
    <path
       id="path1591"
       style="mix-blend-mode:normal;fill:#e487ff;fill-opacity:1;stroke-width:0.264583;filter:url(#filter2364)"
       d="m 34.237843,4.5220081 c -0.264583,0 -0.555935,0.02625 -0.846977,0.05271 -0.44979,0.07937 -0.926041,0.21146 -1.322916,0.449585 -0.502709,0.264584 -0.872919,0.661459 -1.111044,1.190625 -0.158755,0.343958 -0.238228,0.714685 -0.238228,1.11156 v 0.05271 h 0.59893 c 0.02492,-0.311343 0.09851,-0.606711 0.226343,-0.883667 0.238125,-0.529166 0.608334,-0.926041 1.111043,-1.190625 0.396875,-0.238125 0.873126,-0.370215 1.322917,-0.449585 0.291042,-0.02646 0.582393,-0.05271 0.846976,-0.05271 h 11.244792 35.009232 c 0.0046,-0.09585 0.0057,-0.191922 0.0057,-0.280603 H 45.482635 Z m 17.06459,5.9526089 v 0.185518 c 0.02646,0.343959 0.10594,0.687503 0.238229,1.031461 0.238125,0.50271 0.635105,0.926042 1.164272,1.190625 0.130331,0.06951 0.26784,0.127998 0.407726,0.181385 -0.439931,-0.265484 -0.774589,-0.647302 -0.984954,-1.091407 -0.132289,-0.343958 -0.211767,-0.687502 -0.238228,-1.031461 V 10.75522 h 6.270937 c 0.264583,0 0.555522,0.02677 0.820102,0.05323 0.284049,0.03156 0.557496,0.104489 0.82269,0.205672 -0.02032,-0.01201 -0.03974,-0.02517 -0.06046,-0.03669 -0.423328,-0.238125 -0.873019,-0.396669 -1.349269,-0.449585 -0.264581,-0.02646 -0.555522,-0.05323 -0.820105,-0.05323 z m -17.276463,5.16e-4 c -0.264583,0 -0.555522,0.02625 -0.820105,0.05271 -0.47625,0.05292 -0.925939,0.21146 -1.349272,0.449585 -0.47625,0.264584 -0.84708,0.661562 -1.085205,1.16427 -0.132291,0.291042 -0.211252,0.582187 -0.237711,0.899687 -0.02646,0.07937 -0.02687,0.185105 -0.02687,0.290938 v 0.02635 h 0.607714 c 0.0027,-0.01165 0.0026,-0.02594 0.0062,-0.03669 0.02646,-0.3175 0.10542,-0.608645 0.237711,-0.899687 0.238125,-0.502708 0.608955,-0.899685 1.085205,-1.16427 0.423333,-0.238125 0.873022,-0.396665 1.349272,-0.449585 0.264584,-0.02646 0.555523,-0.05271 0.820105,-0.05271 h 5.672522 c 0.0033,-0.03182 0.0084,-0.06379 0.01085,-0.0956 v -0.185002 z m 32.682759,0.0031 c -0.440634,0.827797 -0.691951,1.769823 -0.691946,2.767273 -3e-6,2.466651 1.530752,4.596358 3.68763,5.48752 -1.842421,-1.010581 -3.100589,-2.97045 -3.100589,-5.206917 -2e-6,-0.99745 0.251315,-1.939476 0.691949,-2.767273 h 2.717147 c 0.134075,-0.104086 0.27577,-0.199126 0.426331,-0.280603 z m 6.753077,0 c 0.978945,0.529762 1.63504,1.56299 1.63504,2.767273 0,1.754248 -1.391811,3.146578 -3.14606,3.146578 -0.377986,0 -0.737179,-0.06809 -1.071253,-0.187069 0.480256,0.295353 1.046086,0.467672 1.658298,0.467672 1.754248,0 3.146059,-1.39233 3.146059,-3.146578 0,-1.204283 -0.656095,-2.237511 -1.63504,-2.767273 h 3.282487 c -0.04419,-0.09468 -0.09006,-0.188659 -0.139009,-0.280603 z m -27.836545,0.0098 c -0.770206,0 -1.390305,0.59303 -1.436604,1.350822 h -0.0036 v 0.06925 c -1.01e-4,0.0071 -10e-4,0.01404 -10e-4,0.02119 0,0.0071 9.86e-4,0.01407 10e-4,0.02119 v 5.732984 c -1.01e-4,0.0071 -10e-4,0.01401 -10e-4,0.02119 0,0.0071 9.86e-4,0.01406 10e-4,0.02119 v 0.147278 h 0.0093 c 0.07133,0.62323 0.533376,1.119578 1.124479,1.242302 -0.289423,-0.230624 -0.4925,-0.569111 -0.537435,-0.961699 h -0.0093 v -0.147277 c -4e-5,-0.0071 -10e-4,-0.01409 -10e-4,-0.02119 0,-0.0072 9.32e-4,-0.01409 10e-4,-0.02119 v -5.732984 c -4e-5,-0.0071 -10e-4,-0.01409 -10e-4,-0.02119 0,-0.0071 9.32e-4,-0.01409 10e-4,-0.02119 v -0.06925 h 0.0036 c 0.0463,-0.757792 0.666398,-1.350822 1.436605,-1.350822 0.09003,0.0026 0.178022,0.0141 0.26355,0.03256 -0.238099,-0.184973 -0.530732,-0.303751 -0.850595,-0.31316 z m 11.924337,3.195671 c 0.340762,0.265149 0.56534,0.671352 0.56534,1.12913 0,0.801967 -0.641358,1.443839 -1.443323,1.443839 -0.02783,0 -0.05523,-0.0029 -0.08268,-0.0047 v 0.01499 h -1.74098 c -0.291041,0 -0.581874,3.13e-4 -0.846457,0.05323 -0.449792,0.07937 -0.89969,0.211564 -1.296562,0.423229 -0.529169,0.264585 -0.926147,0.687917 -1.164272,1.190625 -0.132292,0.34396 -0.21177,0.68802 -0.238229,1.031979 v 0.185001 h 0.598414 c 0.03292,-0.312085 0.106833,-0.624308 0.226859,-0.936377 0.238125,-0.502709 0.635103,-0.926041 1.16427,-1.190625 0.396877,-0.211666 0.84677,-0.343859 1.296564,-0.423229 0.264581,-0.05292 0.555416,-0.05323 0.846457,-0.05323 h 1.74098 v -0.01499 c 0.02745,0.0017 0.05485,0.0046 0.08268,0.0046 0.801966,0 1.443323,-0.641872 1.443323,-1.443839 0,-0.687428 -0.499652,-1.267017 -1.152384,-1.409733 z m -25.375711,2.135787 c -0.926043,0 -1.667082,0.74104 -1.667082,1.667082 0,0.787961 0.537382,1.440064 1.251603,1.617472 -0.401408,-0.302786 -0.664559,-0.786372 -0.664559,-1.336869 0,-0.926042 0.74104,-1.667082 1.667082,-1.667082 0.126914,0.0037 0.250533,0.02313 0.369486,0.05374 -0.270162,-0.199828 -0.600531,-0.323875 -0.95653,-0.334346 z"
       clip-path="url(#clipPath2404)"
       transform="translate(-9.0175225,144.5548)" />
    <path
       id="rect3700"
       style="opacity:1;fill:#afdaff;fill-opacity:0.54079;stroke-width:10.5335;filter:url(#filter4290)"
       d="m 95.273438,-211.48047 -22.31836,84.13281 10.916016,2.89649 22.320316,-84.13281 z m 27.708982,0 -22.32031,84.13281 10.91797,2.89649 22.31836,-84.13281 z m 19.67774,0 -22.31836,84.13281 10.91797,2.89649 22.31835,-84.13281 z m 34.86914,0 -22.31836,84.13281 10.91601,2.89649 22.32032,-84.13281 z m 47.59961,0 -22.31836,84.13281 10.91601,2.89649 22.32032,-84.13281 z m 33.48242,0 -22.31836,84.13281 10.91797,2.89649 22.31836,-84.13281 z"
       transform="matrix(0.26458333,0,0,0.26458333,2.5298115,199.06052)"
       clip-path="url(#clipPath3824)" />
  </g>
</svg>
